Coordinates
version=1
nRows=13
nColumns=40
inDegrees=yes

Units are S.I. units (second, meters, Newtons, ...)
Angles are in degrees.

endheader
time	pelvis_tilt	pelvis_list	pelvis_rotation	pelvis_tx	pelvis_ty	pelvis_tz	hip_flexion_r	hip_adduction_r	hip_rotation_r	knee_angle_r	knee_angle_r_beta	ankle_angle_r	subtalar_angle_r	mtp_angle_r	hip_flexion_l	hip_adduction_l	hip_rotation_l	knee_angle_l	knee_angle_l_beta	ankle_angle_l	subtalar_angle_l	mtp_angle_l	lumbar_extension	lumbar_bending	lumbar_rotation	arm_flex_r	arm_add_r	arm_rot_r	elbow_flex_r	pro_sup_r	wrist_flex_r	wrist_dev_r	arm_flex_l	arm_add_l	arm_rot_l	elbow_flex_l	pro_sup_l	wrist_flex_l	wrist_dev_l
     11.85250000	     -5.40638826	     -4.80515546	      2.94695110	      1.05286543	      0.91477842	      0.42920977	      0.52192712	     -3.53064238	    -15.32178399	     29.36704367	     29.36704367	     12.96889505	     -4.66068826	    -13.54789386	     30.16049817	     -5.15497631	      0.91981142	     30.70579568	     30.70579568	      8.72081983	    -16.65097276	     10.60294839	     -9.85154393	      4.38882471	      3.78812784	     49.56570742	    -12.85634582	     -0.62271590	    112.24613157	     44.23751255	      0.00000000	      0.00000000	    -17.79551122	     -5.94022933	      9.09203091	     24.96407378	     44.52137002	      0.00000000	      0.00000000
     11.86457143	     -5.48437427	     -4.78838925	      3.02675473	      1.05301634	      0.91691262	      0.42571947	      1.84045314	     -4.21002151	    -14.76006231	     32.31685985	     32.31685985	     10.12732552	     -6.77561938	    -16.61966104	     29.30727472	     -4.91297994	      0.80875289	     30.15689649	     30.15689649	      9.02194980	    -16.60014859	     10.25510087	     -9.89954814	      4.56551146	      4.01576805	     47.34801469	    -13.55088146	     -1.22102070	    113.64300235	     44.23672286	      0.00000000	      0.00000000	    -16.94522532	     -6.15824808	      8.99065644	     25.99579409	     44.58420362	      0.00000000	      0.00000000
     11.87664286	     -5.41725328	     -4.64100118	      3.10017305	      1.05310811	      0.91925985	      0.42225113	      3.18141443	     -5.17050913	    -14.45668626	     35.65249480	     35.65249480	      7.98564684	     -7.61820147	    -17.18413942	     28.20243585	     -4.60598327	      0.47240095	     29.46482403	     29.46482403	      9.42864688	    -16.18222435	     10.10673527	    -10.08405295	      4.63327291	      3.53243738	     45.42904279	    -13.44463857	     -1.08299106	    113.39382050	     44.23738915	      0.00000000	      0.00000000	    -16.08696928	     -6.21769166	      8.95442290	     26.40591450	     44.61095880	      0.00000000	      0.00000000
     11.88871429	     -5.51227794	     -4.59077807	      3.15500882	      1.05295240	      0.92114896	      0.41902104	      4.90291169	     -5.94316439	    -13.88417809	     39.12685933	     39.12685933	      5.36205407	     -9.11444666	    -17.87854547	     27.32389974	     -4.38007098	      0.25522459	     28.80360248	     28.80360248	      9.71760099	    -15.90666099	      9.90218113	    -10.06301657	      4.78463908	      3.24727976	     43.25556970	    -13.61412863	     -1.23115385	    113.11934165	     44.24965292	      0.00000000	      0.00000000	    -15.21761280	     -6.37982211	      8.77782275	     27.12629867	     44.66183601	      0.00000000	      0.00000000
     11.90078571	     -5.55051154	     -4.57210558	      3.16939913	      1.05270166	      0.92287710	      0.41604214	      6.66457587	     -6.60421403	    -13.20642405	     42.57837131	     42.57837131	      2.48386617	    -10.82294776	    -18.25890617	     26.42058423	     -4.22285170	      0.02957344	     28.18976781	     28.18976781	     10.01731678	    -15.64490941	      9.64432540	    -10.10312922	      4.94509195	      3.06319877	     40.85609801	    -13.80597199	     -1.50669393	    112.64608028	     44.27139463	      0.00000000	      0.00000000	    -14.27930397	     -6.62382272	      8.48804292	     28.06626994	     44.73060363	      0.00000000	      0.00000000
     11.91285714	     -5.49737734	     -4.67058659	      3.14024579	      1.05237357	      0.92443842	      0.41337979	      8.41007049	     -6.98029540	    -12.36204935	     45.90997861	     45.90997861	     -0.69233136	    -13.12298315	    -18.52695269	     25.52641609	     -4.22767271	     -0.17387035	     27.75667021	     27.75667021	     10.22669562	    -15.49621994	      9.05887111	    -10.26475691	      5.20491847	      3.24832802	     38.09863359	    -14.03704671	     -2.50926887	    112.06003916	     44.32966076	      0.00000000	      0.00000000	    -13.34000544	     -7.04151165	      7.72682269	     29.84800577	     44.88188632	      0.00000000	      0.00000000
     11.92492857	     -5.46025778	     -4.57190174	      3.10147445	      1.05197361	      0.92571768	      0.41058438	     10.24469754	     -7.76213557	    -11.90344538	     49.29445363	     49.29445363	     -3.35724045	    -14.22059220	    -17.89023952	     24.57602255	     -4.00848778	     -0.39296692	     27.22631420	     27.22631420	     10.61933957	    -15.19079528	      8.85149007	    -10.39247335	      5.31620938	      2.84927241	     35.63481575	    -13.93489076	     -2.44955571	    111.09649406	     44.35129547	      0.00000000	      0.00000000	    -12.20231513	     -7.23937802	      7.47736167	     30.62182486	     44.94101474	      0.00000000	      0.00000000
     11.93700000	     -5.53201959	     -4.67874533	      2.90861085	      1.05127292	      0.92655249	      0.40844782	     12.43142467	     -8.01576660	    -11.00713296	     52.71380461	     52.71380461	     -5.45545661	    -15.87079353	    -15.01570737	     23.86937842	     -4.07843760	     -0.63855285	     26.86829730	     26.86829730	     10.89065659	    -15.06605316	      8.25440966	    -10.39784126	      5.53577801	      3.12198183	     32.90936375	    -14.14411192	     -3.74721978	    109.07670968	     44.46183070	      0.00000000	      0.00000000	    -11.26880657	     -7.61707949	      6.41582528	     32.63893774	     45.12690760	      0.00000000	      0.00000000
     11.94907143	     -5.50277817	     -4.51758063	      2.68003063	      1.05062238	      0.92727609	      0.40625311	     14.43408890	     -8.73287202	    -10.49006222	     55.82420725	     55.82420725	     -7.57131387	    -17.02853624	    -13.62219752	     22.99045432	     -3.86777951	     -0.97032625	     26.47278568	     26.47278568	     11.31707815	    -14.91312683	      8.03275321	    -10.54834136	      5.48400074	      2.84600781	     30.22013947	    -13.90948795	     -3.63941223	    107.61846191	     44.49607292	      0.00000000	      0.00000000	    -10.02190529	     -7.98393867	      6.05563078	     33.47777928	     45.19933007	      0.00000000	      0.00000000
     11.96114286	     -5.55679958	     -4.59824967	      2.35158703	      1.04972319	      0.92760766	      0.40457042	     16.93701908	     -8.95579700	     -9.73370233	     59.37375756	     59.37375756	     -6.62077429	    -16.91708243	     -4.11771835	     22.26329622	     -3.95647878	     -1.26721770	     26.12397899	     26.12397899	     11.50431154	    -14.89809994	      6.99944766	    -10.56214425	      5.63780806	      2.69216907	     28.01557069	    -13.58740953	     -4.62856011	    104.31681718	     44.66952160	      0.00000000	      0.00000000	     -9.33291528	     -8.08650663	      3.24560218	     35.90829919	     45.63866924	      0.00000000	      0.00000000
     11.97321429	     -5.57914196	     -4.46516033	      1.91462506	      1.04881822	      0.92785320	      0.40294866	     19.06196382	     -9.52677172	     -9.28967516	     61.94301162	     61.94301162	     -7.92279623	    -18.08930004	     -2.85137655	     21.47777623	     -3.83049157	     -1.66639449	     25.80349233	     25.80349233	     11.97774589	    -14.85627257	      6.80830536	    -10.63466388	      5.58198063	      2.85215012	     25.38715848	    -13.73372574	     -4.82254418	    101.83162239	     44.74709597	      0.00000000	      0.00000000	     -7.87041545	     -8.45310263	      2.86170878	     36.81965821	     45.71264818	      0.00000000	      0.00000000
     11.98528571	     -5.53639448	     -4.43282394	      1.47813987	      1.04780706	      0.92806707	      0.40168895	     21.29422463	     -9.88351615	     -8.88759993	     64.53189257	     64.53189257	     -7.15387744	    -18.46000940	      3.18043438	     20.67532021	     -3.83930293	     -2.06537319	     25.55007145	     25.55007145	     12.39966322	    -14.82111499	      6.30443350	    -10.74924219	      5.54896381	      2.71632460	     23.41988496	    -12.93192865	     -6.10089211	     97.42304348	     44.93056290	      0.00000000	      0.00000000	     -6.62601913	     -8.83730653	      1.87746000	     38.34287804	     45.86675857	      0.00000000	      0.00000000
     11.99735714	     -5.48455745	     -4.32903641	      0.95067128	      1.04667790	      0.92817956	      0.40056849	     23.47231264	    -10.34698485	     -8.62630896	     66.69927588	     66.69927588	     -6.24207840	    -18.82450933	      7.87165655	     19.83850571	     -3.78030867	     -2.53018162	     25.25951848	     25.25951848	     12.78237803	    -14.84301999	      5.79113040	    -10.92401225	      5.48868183	      2.61528105	     21.45763774	    -12.78567608	     -6.03607614	     93.62820580	     45.05074523	      0.00000000	      0.00000000	     -5.27634918	     -9.21925938	      0.88499456	     39.62551490	     46.01866661	      0.00000000	      0.00000000
